<?xml version="1.0" encoding="UTF-8" standalone="no"?>
<!DOCTYPE svg PUBLIC "-//W3C//DTD SVG 1.1//EN"
 "http://www.w3.org/Graphics/SVG/1.1/DTD/svg11.dtd">
<!-- Generated by graphviz version 2.43.0 (0)
 -->
<!-- Title: com.teragrep.cfe18.controllerTests.TestApiClient.insertRelpHost Pages: 1 -->
<svg width="430pt" height="108pt"
 viewBox="0.00 0.00 430.00 108.00" xmlns="http://www.w3.org/2000/svg" xmlns:xlink="http://www.w3.org/1999/xlink">
<g id="graph0" class="graph" transform="scale(1 1) rotate(0) translate(4 104)">
<title>com.teragrep.cfe18.controllerTests.TestApiClient.insertRelpHost</title>
<!-- Node1 -->
<g id="Node000001" class="node">
<title>Node1</title>
<g id="a_Node000001"><a xlink:title=" ">
<polygon fill="#999999" stroke="#666666" points="422,-64.5 239,-64.5 239,-34.5 422,-34.5 422,-64.5"/>
<text text-anchor="start" x="247" y="-52.5" font-family="Helvetica,sans-Serif" font-size="10.00">com.teragrep.cfe18.controller</text>
<text text-anchor="middle" x="330.5" y="-41.5" font-family="Helvetica,sans-Serif" font-size="10.00">Tests.TestApiClient.insertRelpHost</text>
</a>
</g>
</g>
<!-- Node2 -->
<g id="Node000002" class="node">
<title>Node2</title>
<g id="a_Node000002"><a xlink:href="classcom_1_1teragrep_1_1cfe18_1_1controllerTests_1_1HostDefinitionControllerTest.html#a37dc9172d43ce43a2f2af45723a96533" target="_top" xlink:title=" ">
<polygon fill="white" stroke="#666666" points="203,-100 0,-100 0,-59 203,-59 203,-100"/>
<text text-anchor="start" x="8" y="-88" font-family="Helvetica,sans-Serif" font-size="10.00">com.teragrep.cfe18.controller</text>
<text text-anchor="start" x="8" y="-77" font-family="Helvetica,sans-Serif" font-size="10.00">Tests.HostDefinitionControllerTest.test</text>
<text text-anchor="middle" x="101.5" y="-66" font-family="Helvetica,sans-Serif" font-size="10.00">SelectAll</text>
</a>
</g>
</g>
<!-- Node1&#45;&gt;Node2 -->
<g id="edge1_Node000001_Node000002" class="edge">
<title>Node1&#45;&gt;Node2</title>
<g id="a_edge1_Node000001_Node000002"><a xlink:title=" ">
<path fill="none" stroke="#63b8ff" d="M228.84,-62.8C220.3,-63.93 211.66,-65.07 203.12,-66.2"/>
<polygon fill="#63b8ff" stroke="#63b8ff" points="229.35,-66.27 238.8,-61.49 228.43,-59.33 229.35,-66.27"/>
</a>
</g>
</g>
<!-- Node3 -->
<g id="Node000003" class="node">
<title>Node3</title>
<g id="a_Node000003"><a xlink:href="classcom_1_1teragrep_1_1cfe18_1_1controllerTests_1_1TagTriggerControllerTest.html#a4de673f8ee99ef5accbf0fdb3cfcacb5" target="_top" xlink:title=" ">
<polygon fill="white" stroke="#666666" points="193,-41 10,-41 10,0 193,0 193,-41"/>
<text text-anchor="start" x="18" y="-29" font-family="Helvetica,sans-Serif" font-size="10.00">com.teragrep.cfe18.controller</text>
<text text-anchor="start" x="18" y="-18" font-family="Helvetica,sans-Serif" font-size="10.00">Tests.TagTriggerControllerTest.test</text>
<text text-anchor="middle" x="101.5" y="-7" font-family="Helvetica,sans-Serif" font-size="10.00">TagTriggerOnError</text>
</a>
</g>
</g>
<!-- Node1&#45;&gt;Node3 -->
<g id="edge2_Node000001_Node000003" class="edge">
<title>Node1&#45;&gt;Node3</title>
<g id="a_edge2_Node000001_Node000003"><a xlink:title=" ">
<path fill="none" stroke="#63b8ff" d="M228.85,-36.64C216.93,-35.12 204.82,-33.57 193.05,-32.07"/>
<polygon fill="#63b8ff" stroke="#63b8ff" points="228.44,-40.12 238.8,-37.91 229.33,-33.17 228.44,-40.12"/>
</a>
</g>
</g>
</g>
</svg>
