<?xml version="1.0" encoding="UTF-8" standalone="no"?>
<!DOCTYPE svg PUBLIC "-//W3C//DTD SVG 1.1//EN"
 "http://www.w3.org/Graphics/SVG/1.1/DTD/svg11.dtd">
<!-- Generated by graphviz version 2.43.0 (0)
 -->
<!-- Title: com.teragrep.cfe18.controllerTests.ApiUtilityControllerTest.testVersionCanBeFetched Pages: 1 -->
<svg width="388pt" height="86pt"
 viewBox="0.00 0.00 388.00 86.00" xmlns="http://www.w3.org/2000/svg" xmlns:xlink="http://www.w3.org/1999/xlink">
<g id="graph0" class="graph" transform="scale(1 1) rotate(0) translate(4 82)">
<title>com.teragrep.cfe18.controllerTests.ApiUtilityControllerTest.testVersionCanBeFetched</title>
<!-- Node1 -->
<g id="Node000001" class="node">
<title>Node1</title>
<g id="a_Node000001"><a xlink:title=" ">
<polygon fill="#999999" stroke="#666666" points="179,-59.5 0,-59.5 0,-18.5 179,-18.5 179,-59.5"/>
<text text-anchor="start" x="8" y="-47.5" font-family="Helvetica,sans-Serif" font-size="10.00">com.teragrep.cfe18.controller</text>
<text text-anchor="start" x="8" y="-36.5" font-family="Helvetica,sans-Serif" font-size="10.00">Tests.ApiUtilityControllerTest.test</text>
<text text-anchor="middle" x="89.5" y="-25.5" font-family="Helvetica,sans-Serif" font-size="10.00">VersionCanBeFetched</text>
</a>
</g>
</g>
<!-- Node2 -->
<g id="Node000002" class="node">
<title>Node2</title>
<g id="a_Node000002"><a xlink:href="classcom_1_1teragrep_1_1cfe18_1_1controllerTests_1_1TestApiClient.html#a813310af33cc1f237d79eb22603aaca9" target="_top" xlink:title=" ">
<polygon fill="white" stroke="#666666" points="380,-78 215,-78 215,-48 380,-48 380,-78"/>
<text text-anchor="start" x="223" y="-66" font-family="Helvetica,sans-Serif" font-size="10.00">com.teragrep.cfe18.controller</text>
<text text-anchor="middle" x="297.5" y="-55" font-family="Helvetica,sans-Serif" font-size="10.00">Tests.TestApiClient.deleteFlow</text>
</a>
</g>
</g>
<!-- Node1&#45;&gt;Node2 -->
<g id="edge1_Node000001_Node000002" class="edge">
<title>Node1&#45;&gt;Node2</title>
<g id="a_edge1_Node000001_Node000002"><a xlink:title=" ">
<path fill="none" stroke="#63b8ff" d="M179.06,-49.32C187.6,-50.31 196.28,-51.32 204.85,-52.32"/>
<polygon fill="#63b8ff" stroke="#63b8ff" points="204.51,-55.81 214.85,-53.49 205.32,-48.85 204.51,-55.81"/>
</a>
</g>
</g>
<!-- Node3 -->
<g id="Node000003" class="node">
<title>Node3</title>
<g id="a_Node000003"><a xlink:href="classcom_1_1teragrep_1_1cfe18_1_1controllerTests_1_1TestApiClient.html#a9a28c3ecb7b02eee1e6c5bbb10893cc3" target="_top" xlink:title=" ">
<polygon fill="white" stroke="#666666" points="378.5,-30 216.5,-30 216.5,0 378.5,0 378.5,-30"/>
<text text-anchor="start" x="224.5" y="-18" font-family="Helvetica,sans-Serif" font-size="10.00">com.teragrep.cfe18.controller</text>
<text text-anchor="middle" x="297.5" y="-7" font-family="Helvetica,sans-Serif" font-size="10.00">Tests.TestApiClient.insertFlow</text>
</a>
</g>
</g>
<!-- Node1&#45;&gt;Node3 -->
<g id="edge2_Node000001_Node000003" class="edge">
<title>Node1&#45;&gt;Node3</title>
<g id="a_edge2_Node000001_Node000003"><a xlink:title=" ">
<path fill="none" stroke="#63b8ff" d="M179.06,-28.68C188.09,-27.63 197.27,-26.56 206.32,-25.51"/>
<polygon fill="#63b8ff" stroke="#63b8ff" points="206.94,-28.96 216.47,-24.32 206.13,-22 206.94,-28.96"/>
</a>
</g>
</g>
</g>
</svg>
