<?xml version="1.0" encoding="UTF-8" standalone="no"?>
<!DOCTYPE svg PUBLIC "-//W3C//DTD SVG 1.1//EN"
 "http://www.w3.org/Graphics/SVG/1.1/DTD/svg11.dtd">
<!-- Generated by graphviz version 2.43.0 (0)
 -->
<!-- Title: Graphical Class Hierarchy Pages: 1 -->
<svg width="520pt" height="578pt"
 viewBox="0.00 0.00 520.00 578.00" xmlns="http://www.w3.org/2000/svg" xmlns:xlink="http://www.w3.org/1999/xlink">
<g id="graph0" class="graph" transform="scale(1 1) rotate(0) translate(4 574)">
<title>Graphical Class Hierarchy</title>
<!-- Node0 -->
<g id="Node000000" class="node">
<title>Node0</title>
<g id="a_Node000000"><a xlink:title=" ">
<polygon fill="#e0e0e0" stroke="#999999" points="74,-300.5 0,-300.5 0,-281.5 74,-281.5 74,-300.5"/>
<text text-anchor="middle" x="37" y="-288.5" font-family="Helvetica,sans-Serif" font-size="10.00">DBTestCase</text>
</a>
</g>
</g>
<!-- Node1 -->
<g id="Node000001" class="node">
<title>Node1</title>
<g id="a_Node000001"><a xlink:href="classcom_1_1teragrep_1_1cfe18_1_1procedureTests_1_1DBUnitbase.html" target="_top" xlink:title=" ">
<polygon fill="white" stroke="#666666" points="274,-306 110,-306 110,-276 274,-276 274,-306"/>
<text text-anchor="start" x="118" y="-294" font-family="Helvetica,sans-Serif" font-size="10.00">com.teragrep.cfe18.procedure</text>
<text text-anchor="middle" x="192" y="-283" font-family="Helvetica,sans-Serif" font-size="10.00">Tests.DBUnitbase</text>
</a>
</g>
</g>
<!-- Node0&#45;&gt;Node1 -->
<g id="edge16_Node000000_Node000001" class="edge">
<title>Node0&#45;&gt;Node1</title>
<g id="a_edge16_Node000000_Node000001"><a xlink:title=" ">
<path fill="none" stroke="#63b8ff" d="M84.49,-291C92.53,-291 101.1,-291 109.75,-291"/>
<polygon fill="#63b8ff" stroke="#63b8ff" points="84.26,-287.5 74.26,-291 84.26,-294.5 84.26,-287.5"/>
</a>
</g>
</g>
<!-- Node2 -->
<g id="Node000002" class="node">
<title>Node2</title>
<g id="a_Node000002"><a xlink:href="classcom_1_1teragrep_1_1cfe18_1_1procedureTests_1_1ProcedureCaptureGroupsTest.html" target="_top" xlink:title=" ">
<polygon fill="white" stroke="#666666" points="503.5,-570 318.5,-570 318.5,-540 503.5,-540 503.5,-570"/>
<text text-anchor="start" x="326.5" y="-558" font-family="Helvetica,sans-Serif" font-size="10.00">com.teragrep.cfe18.procedure</text>
<text text-anchor="middle" x="411" y="-547" font-family="Helvetica,sans-Serif" font-size="10.00">Tests.ProcedureCaptureGroupsTest</text>
</a>
</g>
</g>
<!-- Node1&#45;&gt;Node2 -->
<g id="edge17_Node000001_Node000002" class="edge">
<title>Node1&#45;&gt;Node2</title>
<g id="a_edge17_Node000001_Node000002"><a xlink:title=" ">
<path fill="none" stroke="#63b8ff" d="M197.8,-315.97C208.61,-365.11 239.61,-474.5 310,-531 314.32,-534.46 319.05,-537.44 324.05,-540"/>
<polygon fill="#63b8ff" stroke="#63b8ff" points="201.23,-315.23 195.74,-306.17 194.38,-316.67 201.23,-315.23"/>
</a>
</g>
</g>
<!-- Node3 -->
<g id="Node000003" class="node">
<title>Node3</title>
<g id="a_Node000003"><a xlink:href="classcom_1_1teragrep_1_1cfe18_1_1procedureTests_1_1ProcedureCaptureMetaFileTest.html" target="_top" xlink:title=" ">
<polygon fill="white" stroke="#666666" points="507.5,-522 314.5,-522 314.5,-492 507.5,-492 507.5,-522"/>
<text text-anchor="start" x="322.5" y="-510" font-family="Helvetica,sans-Serif" font-size="10.00">com.teragrep.cfe18.procedure</text>
<text text-anchor="middle" x="411" y="-499" font-family="Helvetica,sans-Serif" font-size="10.00">Tests.ProcedureCaptureMetaFileTest</text>
</a>
</g>
</g>
<!-- Node1&#45;&gt;Node3 -->
<g id="edge18_Node000001_Node000003" class="edge">
<title>Node1&#45;&gt;Node3</title>
<g id="a_edge18_Node000001_Node000003"><a xlink:title=" ">
<path fill="none" stroke="#63b8ff" d="M200.92,-315.56C215.54,-356.85 250.81,-439.88 310,-483 314.76,-486.47 319.96,-489.44 325.4,-491.99"/>
<polygon fill="#63b8ff" stroke="#63b8ff" points="204.2,-314.34 197.64,-306.01 197.58,-316.61 204.2,-314.34"/>
</a>
</g>
</g>
<!-- Node4 -->
<g id="Node000004" class="node">
<title>Node4</title>
<g id="a_Node000004"><a xlink:href="classcom_1_1teragrep_1_1cfe18_1_1procedureTests_1_1ProcedureGxGTest.html" target="_top" xlink:title=" ">
<polygon fill="white" stroke="#666666" points="493,-474 329,-474 329,-444 493,-444 493,-474"/>
<text text-anchor="start" x="337" y="-462" font-family="Helvetica,sans-Serif" font-size="10.00">com.teragrep.cfe18.procedure</text>
<text text-anchor="middle" x="411" y="-451" font-family="Helvetica,sans-Serif" font-size="10.00">Tests.ProcedureGxGTest</text>
</a>
</g>
</g>
<!-- Node1&#45;&gt;Node4 -->
<g id="edge19_Node000001_Node000004" class="edge">
<title>Node1&#45;&gt;Node4</title>
<g id="a_edge19_Node000001_Node000004"><a xlink:title=" ">
<path fill="none" stroke="#63b8ff" d="M205.9,-315.23C224.47,-347.69 261.87,-404.69 310,-435 315.89,-438.71 322.31,-441.85 328.96,-444.5"/>
<polygon fill="#63b8ff" stroke="#63b8ff" points="208.89,-313.41 200.96,-306.39 202.78,-316.82 208.89,-313.41"/>
</a>
</g>
</g>
<!-- Node5 -->
<g id="Node000005" class="node">
<title>Node5</title>
<g id="a_Node000005"><a xlink:href="classcom_1_1teragrep_1_1cfe18_1_1procedureTests_1_1ProcedureHostAddCfeFileTest.html" target="_top" xlink:title=" ">
<polygon fill="white" stroke="#666666" points="505,-426 317,-426 317,-396 505,-396 505,-426"/>
<text text-anchor="start" x="325" y="-414" font-family="Helvetica,sans-Serif" font-size="10.00">com.teragrep.cfe18.procedure</text>
<text text-anchor="middle" x="411" y="-403" font-family="Helvetica,sans-Serif" font-size="10.00">Tests.ProcedureHostAddCfeFileTest</text>
</a>
</g>
</g>
<!-- Node1&#45;&gt;Node5 -->
<g id="edge20_Node000001_Node000005" class="edge">
<title>Node1&#45;&gt;Node5</title>
<g id="a_edge20_Node000001_Node000005"><a xlink:title=" ">
<path fill="none" stroke="#63b8ff" d="M214.09,-313.43C236.01,-335.41 272.33,-368.27 310,-387 316.95,-390.46 324.43,-393.43 332.06,-395.99"/>
<polygon fill="#63b8ff" stroke="#63b8ff" points="216.45,-310.84 206.96,-306.15 211.45,-315.74 216.45,-310.84"/>
</a>
</g>
</g>
<!-- Node6 -->
<g id="Node000006" class="node">
<title>Node6</title>
<g id="a_Node000006"><a xlink:href="classcom_1_1teragrep_1_1cfe18_1_1procedureTests_1_1ProcedureHostGroupFileTest.html" target="_top" xlink:title=" ">
<polygon fill="white" stroke="#666666" points="502,-378 320,-378 320,-348 502,-348 502,-378"/>
<text text-anchor="start" x="328" y="-366" font-family="Helvetica,sans-Serif" font-size="10.00">com.teragrep.cfe18.procedure</text>
<text text-anchor="middle" x="411" y="-355" font-family="Helvetica,sans-Serif" font-size="10.00">Tests.ProcedureHostGroupFileTest</text>
</a>
</g>
</g>
<!-- Node1&#45;&gt;Node6 -->
<g id="edge21_Node000001_Node000006" class="edge">
<title>Node1&#45;&gt;Node6</title>
<g id="a_edge21_Node000001_Node000006"><a xlink:title=" ">
<path fill="none" stroke="#63b8ff" d="M235.16,-310.14C257.16,-319.65 284.7,-330.83 310,-339 320.02,-342.24 330.74,-345.26 341.29,-347.99"/>
<polygon fill="#63b8ff" stroke="#63b8ff" points="236.34,-306.83 225.78,-306.04 233.54,-313.25 236.34,-306.83"/>
</a>
</g>
</g>
<!-- Node7 -->
<g id="Node000007" class="node">
<title>Node7</title>
<g id="a_Node000007"><a xlink:href="classcom_1_1teragrep_1_1cfe18_1_1procedureTests_1_1ProcedureHostMetaFileTest.html" target="_top" xlink:title=" ">
<polygon fill="white" stroke="#666666" points="499.5,-330 322.5,-330 322.5,-300 499.5,-300 499.5,-330"/>
<text text-anchor="start" x="330.5" y="-318" font-family="Helvetica,sans-Serif" font-size="10.00">com.teragrep.cfe18.procedure</text>
<text text-anchor="middle" x="411" y="-307" font-family="Helvetica,sans-Serif" font-size="10.00">Tests.ProcedureHostMetaFileTest</text>
</a>
</g>
</g>
<!-- Node1&#45;&gt;Node7 -->
<g id="edge22_Node000001_Node000007" class="edge">
<title>Node1&#45;&gt;Node7</title>
<g id="a_edge22_Node000001_Node000007"><a xlink:title=" ">
<path fill="none" stroke="#63b8ff" d="M284.19,-301.09C296.85,-302.49 309.85,-303.92 322.44,-305.32"/>
<polygon fill="#63b8ff" stroke="#63b8ff" points="284.44,-297.59 274.11,-299.97 283.67,-304.55 284.44,-297.59"/>
</a>
</g>
</g>
<!-- Node8 -->
<g id="Node000008" class="node">
<title>Node8</title>
<g id="a_Node000008"><a xlink:href="classcom_1_1teragrep_1_1cfe18_1_1procedureTests_1_1ProcedureProcessingTypeTest.html" target="_top" xlink:title=" ">
<polygon fill="white" stroke="#666666" points="505,-282 317,-282 317,-252 505,-252 505,-282"/>
<text text-anchor="start" x="325" y="-270" font-family="Helvetica,sans-Serif" font-size="10.00">com.teragrep.cfe18.procedure</text>
<text text-anchor="middle" x="411" y="-259" font-family="Helvetica,sans-Serif" font-size="10.00">Tests.ProcedureProcessingTypeTest</text>
</a>
</g>
</g>
<!-- Node1&#45;&gt;Node8 -->
<g id="edge23_Node000001_Node000008" class="edge">
<title>Node1&#45;&gt;Node8</title>
<g id="a_edge23_Node000001_Node000008"><a xlink:title=" ">
<path fill="none" stroke="#63b8ff" d="M284.36,-280.9C295.13,-279.7 306.14,-278.49 316.94,-277.29"/>
<polygon fill="#63b8ff" stroke="#63b8ff" points="283.67,-277.45 274.11,-282.03 284.44,-284.41 283.67,-277.45"/>
</a>
</g>
</g>
<!-- Node9 -->
<g id="Node000009" class="node">
<title>Node9</title>
<g id="a_Node000009"><a xlink:href="classcom_1_1teragrep_1_1cfe18_1_1procedureTests_1_1ProcedureSinkTest.html" target="_top" xlink:title=" ">
<polygon fill="white" stroke="#666666" points="493,-234 329,-234 329,-204 493,-204 493,-234"/>
<text text-anchor="start" x="337" y="-222" font-family="Helvetica,sans-Serif" font-size="10.00">com.teragrep.cfe18.procedure</text>
<text text-anchor="middle" x="411" y="-211" font-family="Helvetica,sans-Serif" font-size="10.00">Tests.ProcedureSinkTest</text>
</a>
</g>
</g>
<!-- Node1&#45;&gt;Node9 -->
<g id="edge24_Node000001_Node000009" class="edge">
<title>Node1&#45;&gt;Node9</title>
<g id="a_edge24_Node000001_Node000009"><a xlink:title=" ">
<path fill="none" stroke="#63b8ff" d="M235.16,-271.86C257.16,-262.35 284.7,-251.17 310,-243 320.02,-239.76 330.74,-236.74 341.29,-234.01"/>
<polygon fill="#63b8ff" stroke="#63b8ff" points="233.54,-268.75 225.78,-275.96 236.34,-275.17 233.54,-268.75"/>
</a>
</g>
</g>
<!-- Node10 -->
<g id="Node000010" class="node">
<title>Node10</title>
<g id="a_Node000010"><a xlink:href="classcom_1_1teragrep_1_1cfe18_1_1procedureTests_1_1ProcedureStorageTest.html" target="_top" xlink:title=" ">
<polygon fill="white" stroke="#666666" points="493,-186 329,-186 329,-156 493,-156 493,-186"/>
<text text-anchor="start" x="337" y="-174" font-family="Helvetica,sans-Serif" font-size="10.00">com.teragrep.cfe18.procedure</text>
<text text-anchor="middle" x="411" y="-163" font-family="Helvetica,sans-Serif" font-size="10.00">Tests.ProcedureStorageTest</text>
</a>
</g>
</g>
<!-- Node1&#45;&gt;Node10 -->
<g id="edge25_Node000001_Node000010" class="edge">
<title>Node1&#45;&gt;Node10</title>
<g id="a_edge25_Node000001_Node000010"><a xlink:title=" ">
<path fill="none" stroke="#63b8ff" d="M214.09,-268.57C236.01,-246.59 272.33,-213.73 310,-195 316.95,-191.54 324.43,-188.57 332.06,-186.01"/>
<polygon fill="#63b8ff" stroke="#63b8ff" points="211.45,-266.26 206.96,-275.85 216.45,-271.16 211.45,-266.26"/>
</a>
</g>
</g>
<!-- Node11 -->
<g id="Node000011" class="node">
<title>Node11</title>
<g id="a_Node000011"><a xlink:href="classcom_1_1teragrep_1_1cfe18_1_1procedureTests_1_1TriggerHostFileTest.html" target="_top" xlink:title=" ">
<polygon fill="white" stroke="#666666" points="493,-138 329,-138 329,-108 493,-108 493,-138"/>
<text text-anchor="start" x="337" y="-126" font-family="Helvetica,sans-Serif" font-size="10.00">com.teragrep.cfe18.procedure</text>
<text text-anchor="middle" x="411" y="-115" font-family="Helvetica,sans-Serif" font-size="10.00">Tests.TriggerHostFileTest</text>
</a>
</g>
</g>
<!-- Node1&#45;&gt;Node11 -->
<g id="edge26_Node000001_Node000011" class="edge">
<title>Node1&#45;&gt;Node11</title>
<g id="a_edge26_Node000001_Node000011"><a xlink:title=" ">
<path fill="none" stroke="#63b8ff" d="M205.9,-266.77C224.47,-234.31 261.87,-177.31 310,-147 315.89,-143.29 322.31,-140.15 328.96,-137.5"/>
<polygon fill="#63b8ff" stroke="#63b8ff" points="202.78,-265.18 200.96,-275.61 208.89,-268.59 202.78,-265.18"/>
</a>
</g>
</g>
<!-- Node12 -->
<g id="Node000012" class="node">
<title>Node12</title>
<g id="a_Node000012"><a xlink:href="classcom_1_1teragrep_1_1cfe18_1_1procedureTests_1_1TriggerHostGroupCaptureGroupsFileTest.html" target="_top" xlink:title=" ">
<polygon fill="white" stroke="#666666" points="512,-89.5 310,-89.5 310,-48.5 512,-48.5 512,-89.5"/>
<text text-anchor="start" x="318" y="-77.5" font-family="Helvetica,sans-Serif" font-size="10.00">com.teragrep.cfe18.procedure</text>
<text text-anchor="start" x="318" y="-66.5" font-family="Helvetica,sans-Serif" font-size="10.00">Tests.TriggerHostGroupCaptureGroups</text>
<text text-anchor="middle" x="411" y="-55.5" font-family="Helvetica,sans-Serif" font-size="10.00">FileTest</text>
</a>
</g>
</g>
<!-- Node1&#45;&gt;Node12 -->
<g id="edge27_Node000001_Node000012" class="edge">
<title>Node1&#45;&gt;Node12</title>
<g id="a_edge27_Node000001_Node000012"><a xlink:title=" ">
<path fill="none" stroke="#63b8ff" d="M201.29,-266.49C216.37,-225.62 252.18,-143.64 310,-99 314.59,-95.46 319.6,-92.33 324.84,-89.57"/>
<polygon fill="#63b8ff" stroke="#63b8ff" points="197.98,-265.35 197.9,-275.95 204.57,-267.71 197.98,-265.35"/>
</a>
</g>
</g>
<!-- Node13 -->
<g id="Node000013" class="node">
<title>Node13</title>
<g id="a_Node000013"><a xlink:href="classcom_1_1teragrep_1_1cfe18_1_1procedureTests_1_1TriggerTagTest.html" target="_top" xlink:title=" ">
<polygon fill="white" stroke="#666666" points="493,-30 329,-30 329,0 493,0 493,-30"/>
<text text-anchor="start" x="337" y="-18" font-family="Helvetica,sans-Serif" font-size="10.00">com.teragrep.cfe18.procedure</text>
<text text-anchor="middle" x="411" y="-7" font-family="Helvetica,sans-Serif" font-size="10.00">Tests.TriggerTagTest</text>
</a>
</g>
</g>
<!-- Node1&#45;&gt;Node13 -->
<g id="edge28_Node000001_Node000013" class="edge">
<title>Node1&#45;&gt;Node13</title>
<g id="a_edge28_Node000001_Node000013"><a xlink:title=" ">
<path fill="none" stroke="#63b8ff" d="M197.34,-265.71C207.45,-214.82 237.44,-99.86 310,-40 315.66,-35.33 322.07,-31.52 328.85,-28.4"/>
<polygon fill="#63b8ff" stroke="#63b8ff" points="193.85,-265.35 195.43,-275.82 200.73,-266.65 193.85,-265.35"/>
</a>
</g>
</g>
</g>
</svg>
