<?xml version="1.0" encoding="UTF-8" standalone="no"?>
<!DOCTYPE svg PUBLIC "-//W3C//DTD SVG 1.1//EN"
 "http://www.w3.org/Graphics/SVG/1.1/DTD/svg11.dtd">
<!-- Generated by graphviz version 2.43.0 (0)
 -->
<!-- Title: com.teragrep.cfe18.requestfilter.JsonAble Pages: 1 -->
<svg width="419pt" height="652pt"
 viewBox="0.00 0.00 419.00 651.50" xmlns="http://www.w3.org/2000/svg" xmlns:xlink="http://www.w3.org/1999/xlink">
<g id="graph0" class="graph" transform="scale(1 1) rotate(0) translate(4 647.5)">
<title>com.teragrep.cfe18.requestfilter.JsonAble</title>
<!-- Node1 -->
<g id="Node000001" class="node">
<title>Node1</title>
<g id="a_Node000001"><a xlink:title=" ">
<polygon fill="#999999" stroke="#666666" points="176,-331.5 0,-331.5 0,-301.5 176,-301.5 176,-331.5"/>
<text text-anchor="start" x="8" y="-319.5" font-family="Helvetica,sans-Serif" font-size="10.00">com.teragrep.cfe18.requestfilter.</text>
<text text-anchor="middle" x="88" y="-308.5" font-family="Helvetica,sans-Serif" font-size="10.00">JsonAble</text>
</a>
</g>
</g>
<!-- Node2 -->
<g id="Node000002" class="node">
<title>Node2</title>
<g id="a_Node000002"><a xlink:href="classcom_1_1teragrep_1_1cfe18_1_1requestfilter_1_1Action.html" target="_top" xlink:title=" ">
<polygon fill="white" stroke="#666666" points="399.5,-643.5 223.5,-643.5 223.5,-613.5 399.5,-613.5 399.5,-643.5"/>
<text text-anchor="start" x="231.5" y="-631.5" font-family="Helvetica,sans-Serif" font-size="10.00">com.teragrep.cfe18.requestfilter.</text>
<text text-anchor="middle" x="311.5" y="-620.5" font-family="Helvetica,sans-Serif" font-size="10.00">Action</text>
</a>
</g>
</g>
<!-- Node1&#45;&gt;Node2 -->
<g id="edge1_Node000001_Node000002" class="edge">
<title>Node1&#45;&gt;Node2</title>
<g id="a_edge1_Node000001_Node000002"><a xlink:title=" ">
<path fill="none" stroke="#63b8ff" d="M92.21,-341.99C100.72,-398.39 129.18,-534.3 212,-604.5 216.03,-607.91 220.46,-610.86 225.16,-613.39"/>
<polygon fill="#63b8ff" stroke="#63b8ff" points="95.64,-341.22 90.77,-331.81 88.71,-342.2 95.64,-341.22"/>
</a>
</g>
</g>
<!-- Node3 -->
<g id="Node000003" class="node">
<title>Node3</title>
<g id="a_Node000003"><a xlink:href="classcom_1_1teragrep_1_1cfe18_1_1requestfilter_1_1Cause.html" target="_top" xlink:title=" ">
<polygon fill="white" stroke="#666666" points="399.5,-595.5 223.5,-595.5 223.5,-565.5 399.5,-565.5 399.5,-595.5"/>
<text text-anchor="start" x="231.5" y="-583.5" font-family="Helvetica,sans-Serif" font-size="10.00">com.teragrep.cfe18.requestfilter.</text>
<text text-anchor="middle" x="311.5" y="-572.5" font-family="Helvetica,sans-Serif" font-size="10.00">Cause</text>
</a>
</g>
</g>
<!-- Node1&#45;&gt;Node3 -->
<g id="edge2_Node000001_Node000003" class="edge">
<title>Node1&#45;&gt;Node3</title>
<g id="a_edge2_Node000001_Node000003"><a xlink:title=" ">
<path fill="none" stroke="#63b8ff" d="M94.47,-341.47C106.58,-390.62 140.44,-500.02 212,-556.5 216.28,-559.88 220.97,-562.79 225.91,-565.3"/>
<polygon fill="#63b8ff" stroke="#63b8ff" points="97.86,-340.59 92.15,-331.67 91.05,-342.21 97.86,-340.59"/>
</a>
</g>
</g>
<!-- Node4 -->
<g id="Node000004" class="node">
<title>Node4</title>
<g id="a_Node000004"><a xlink:href="classcom_1_1teragrep_1_1cfe18_1_1requestfilter_1_1Classification.html" target="_top" xlink:title=" ">
<polygon fill="white" stroke="#666666" points="399.5,-547.5 223.5,-547.5 223.5,-517.5 399.5,-517.5 399.5,-547.5"/>
<text text-anchor="start" x="231.5" y="-535.5" font-family="Helvetica,sans-Serif" font-size="10.00">com.teragrep.cfe18.requestfilter.</text>
<text text-anchor="middle" x="311.5" y="-524.5" font-family="Helvetica,sans-Serif" font-size="10.00">Classification</text>
</a>
</g>
</g>
<!-- Node1&#45;&gt;Node4 -->
<g id="edge3_Node000001_Node000004" class="edge">
<title>Node1&#45;&gt;Node4</title>
<g id="a_edge3_Node000001_Node000004"><a xlink:title=" ">
<path fill="none" stroke="#63b8ff" d="M97.71,-341.05C113.65,-382.33 151.56,-465.35 212,-508.5 216.73,-511.87 221.87,-514.78 227.25,-517.28"/>
<polygon fill="#63b8ff" stroke="#63b8ff" points="100.91,-339.64 94.12,-331.51 94.36,-342.1 100.91,-339.64"/>
</a>
</g>
</g>
<!-- Node5 -->
<g id="Node000005" class="node">
<title>Node5</title>
<g id="a_Node000005"><a xlink:href="classcom_1_1teragrep_1_1cfe18_1_1requestfilter_1_1Effect.html" target="_top" xlink:title=" ">
<polygon fill="white" stroke="#666666" points="399.5,-499.5 223.5,-499.5 223.5,-469.5 399.5,-469.5 399.5,-499.5"/>
<text text-anchor="start" x="231.5" y="-487.5" font-family="Helvetica,sans-Serif" font-size="10.00">com.teragrep.cfe18.requestfilter.</text>
<text text-anchor="middle" x="311.5" y="-476.5" font-family="Helvetica,sans-Serif" font-size="10.00">Effect</text>
</a>
</g>
</g>
<!-- Node1&#45;&gt;Node5 -->
<g id="edge4_Node000001_Node000005" class="edge">
<title>Node1&#45;&gt;Node5</title>
<g id="a_edge4_Node000001_Node000005"><a xlink:title=" ">
<path fill="none" stroke="#63b8ff" d="M102.89,-340.7C122.8,-373.12 162.55,-430.08 212,-460.5 217.62,-463.96 223.71,-466.92 230.01,-469.45"/>
<polygon fill="#63b8ff" stroke="#63b8ff" points="105.74,-338.64 97.59,-331.87 99.74,-342.24 105.74,-338.64"/>
</a>
</g>
</g>
<!-- Node6 -->
<g id="Node000006" class="node">
<title>Node6</title>
<g id="a_Node000006"><a xlink:href="classcom_1_1teragrep_1_1cfe18_1_1requestfilter_1_1Granularity.html" target="_top" xlink:title=" ">
<polygon fill="white" stroke="#666666" points="399.5,-451.5 223.5,-451.5 223.5,-421.5 399.5,-421.5 399.5,-451.5"/>
<text text-anchor="start" x="231.5" y="-439.5" font-family="Helvetica,sans-Serif" font-size="10.00">com.teragrep.cfe18.requestfilter.</text>
<text text-anchor="middle" x="311.5" y="-428.5" font-family="Helvetica,sans-Serif" font-size="10.00">Granularity</text>
</a>
</g>
</g>
<!-- Node1&#45;&gt;Node6 -->
<g id="edge5_Node000001_Node000006" class="edge">
<title>Node1&#45;&gt;Node6</title>
<g id="a_edge5_Node000001_Node000006"><a xlink:title=" ">
<path fill="none" stroke="#63b8ff" d="M111.1,-338.57C134.3,-360.5 172.79,-393.52 212,-412.5 219.13,-415.95 226.8,-418.93 234.59,-421.5"/>
<polygon fill="#63b8ff" stroke="#63b8ff" points="113.48,-336 103.84,-331.6 108.63,-341.05 113.48,-336"/>
</a>
</g>
</g>
<!-- Node7 -->
<g id="Node000007" class="node">
<title>Node7</title>
<g id="a_Node000007"><a xlink:href="classcom_1_1teragrep_1_1cfe18_1_1requestfilter_1_1Location.html" target="_top" xlink:title=" ">
<polygon fill="white" stroke="#666666" points="399.5,-403.5 223.5,-403.5 223.5,-373.5 399.5,-373.5 399.5,-403.5"/>
<text text-anchor="start" x="231.5" y="-391.5" font-family="Helvetica,sans-Serif" font-size="10.00">com.teragrep.cfe18.requestfilter.</text>
<text text-anchor="middle" x="311.5" y="-380.5" font-family="Helvetica,sans-Serif" font-size="10.00">Location</text>
</a>
</g>
</g>
<!-- Node1&#45;&gt;Node7 -->
<g id="edge6_Node000001_Node000007" class="edge">
<title>Node1&#45;&gt;Node7</title>
<g id="a_edge6_Node000001_Node000007"><a xlink:title=" ">
<path fill="none" stroke="#63b8ff" d="M133.36,-335.46C156.53,-344.94 185.51,-356.14 212,-364.5 222.16,-367.7 233.01,-370.73 243.67,-373.49"/>
<polygon fill="#63b8ff" stroke="#63b8ff" points="134.39,-332.1 123.81,-331.52 131.72,-338.57 134.39,-332.1"/>
</a>
</g>
</g>
<!-- Node8 -->
<g id="Node000008" class="node">
<title>Node8</title>
<g id="a_Node000008"><a xlink:href="classcom_1_1teragrep_1_1cfe18_1_1requestfilter_1_1ProxiedConnectionInfo.html" target="_top" xlink:title=" ">
<polygon fill="white" stroke="#666666" points="399.5,-355.5 223.5,-355.5 223.5,-325.5 399.5,-325.5 399.5,-355.5"/>
<text text-anchor="start" x="231.5" y="-343.5" font-family="Helvetica,sans-Serif" font-size="10.00">com.teragrep.cfe18.requestfilter.</text>
<text text-anchor="middle" x="311.5" y="-332.5" font-family="Helvetica,sans-Serif" font-size="10.00">ProxiedConnectionInfo</text>
</a>
</g>
</g>
<!-- Node1&#45;&gt;Node8 -->
<g id="edge7_Node000001_Node000008" class="edge">
<title>Node1&#45;&gt;Node8</title>
<g id="a_edge7_Node000001_Node000008"><a xlink:title=" ">
<path fill="none" stroke="#63b8ff" d="M186.47,-327.06C198.75,-328.39 211.25,-329.75 223.35,-331.06"/>
<polygon fill="#63b8ff" stroke="#63b8ff" points="186.54,-323.55 176.22,-325.95 185.79,-330.51 186.54,-323.55"/>
</a>
</g>
</g>
<!-- Node9 -->
<g id="Node000009" class="node">
<title>Node9</title>
<g id="a_Node000009"><a xlink:href="classcom_1_1teragrep_1_1cfe18_1_1requestfilter_1_1RemoteInfo.html" target="_top" xlink:title=" ">
<polygon fill="white" stroke="#666666" points="399.5,-307.5 223.5,-307.5 223.5,-277.5 399.5,-277.5 399.5,-307.5"/>
<text text-anchor="start" x="231.5" y="-295.5" font-family="Helvetica,sans-Serif" font-size="10.00">com.teragrep.cfe18.requestfilter.</text>
<text text-anchor="middle" x="311.5" y="-284.5" font-family="Helvetica,sans-Serif" font-size="10.00">RemoteInfo</text>
</a>
</g>
</g>
<!-- Node1&#45;&gt;Node9 -->
<g id="edge8_Node000001_Node000009" class="edge">
<title>Node1&#45;&gt;Node9</title>
<g id="a_edge8_Node000001_Node000009"><a xlink:title=" ">
<path fill="none" stroke="#63b8ff" d="M186.47,-305.94C198.75,-304.61 211.25,-303.25 223.35,-301.94"/>
<polygon fill="#63b8ff" stroke="#63b8ff" points="185.79,-302.49 176.22,-307.05 186.54,-309.45 185.79,-302.49"/>
</a>
</g>
</g>
<!-- Node10 -->
<g id="Node000010" class="node">
<title>Node10</title>
<g id="a_Node000010"><a xlink:href="classcom_1_1teragrep_1_1cfe18_1_1requestfilter_1_1RequestIdentity.html" target="_top" xlink:title=" ">
<polygon fill="white" stroke="#666666" points="399.5,-259.5 223.5,-259.5 223.5,-229.5 399.5,-229.5 399.5,-259.5"/>
<text text-anchor="start" x="231.5" y="-247.5" font-family="Helvetica,sans-Serif" font-size="10.00">com.teragrep.cfe18.requestfilter.</text>
<text text-anchor="middle" x="311.5" y="-236.5" font-family="Helvetica,sans-Serif" font-size="10.00">RequestIdentity</text>
</a>
</g>
</g>
<!-- Node1&#45;&gt;Node10 -->
<g id="edge9_Node000001_Node000010" class="edge">
<title>Node1&#45;&gt;Node10</title>
<g id="a_edge9_Node000001_Node000010"><a xlink:title=" ">
<path fill="none" stroke="#63b8ff" d="M133.36,-297.54C156.53,-288.06 185.51,-276.86 212,-268.5 222.16,-265.3 233.01,-262.27 243.67,-259.51"/>
<polygon fill="#63b8ff" stroke="#63b8ff" points="131.72,-294.43 123.81,-301.48 134.39,-300.9 131.72,-294.43"/>
</a>
</g>
</g>
<!-- Node11 -->
<g id="Node000011" class="node">
<title>Node11</title>
<g id="a_Node000011"><a xlink:href="classcom_1_1teragrep_1_1cfe18_1_1requestfilter_1_1RequestObject.html" target="_top" xlink:title=" ">
<polygon fill="white" stroke="#666666" points="399.5,-211.5 223.5,-211.5 223.5,-181.5 399.5,-181.5 399.5,-211.5"/>
<text text-anchor="start" x="231.5" y="-199.5" font-family="Helvetica,sans-Serif" font-size="10.00">com.teragrep.cfe18.requestfilter.</text>
<text text-anchor="middle" x="311.5" y="-188.5" font-family="Helvetica,sans-Serif" font-size="10.00">RequestObject</text>
</a>
</g>
</g>
<!-- Node1&#45;&gt;Node11 -->
<g id="edge10_Node000001_Node000011" class="edge">
<title>Node1&#45;&gt;Node11</title>
<g id="a_edge10_Node000001_Node000011"><a xlink:title=" ">
<path fill="none" stroke="#63b8ff" d="M111.1,-294.43C134.3,-272.5 172.79,-239.48 212,-220.5 219.13,-217.05 226.8,-214.07 234.59,-211.5"/>
<polygon fill="#63b8ff" stroke="#63b8ff" points="108.63,-291.95 103.84,-301.4 113.48,-297 108.63,-291.95"/>
</a>
</g>
</g>
<!-- Node12 -->
<g id="Node000012" class="node">
<title>Node12</title>
<g id="a_Node000012"><a xlink:href="classcom_1_1teragrep_1_1cfe18_1_1requestfilter_1_1Result.html" target="_top" xlink:title=" ">
<polygon fill="white" stroke="#666666" points="399.5,-163.5 223.5,-163.5 223.5,-133.5 399.5,-133.5 399.5,-163.5"/>
<text text-anchor="start" x="231.5" y="-151.5" font-family="Helvetica,sans-Serif" font-size="10.00">com.teragrep.cfe18.requestfilter.</text>
<text text-anchor="middle" x="311.5" y="-140.5" font-family="Helvetica,sans-Serif" font-size="10.00">Result</text>
</a>
</g>
</g>
<!-- Node1&#45;&gt;Node12 -->
<g id="edge11_Node000001_Node000012" class="edge">
<title>Node1&#45;&gt;Node12</title>
<g id="a_edge11_Node000001_Node000012"><a xlink:title=" ">
<path fill="none" stroke="#63b8ff" d="M102.89,-292.3C122.8,-259.88 162.55,-202.92 212,-172.5 217.62,-169.04 223.71,-166.08 230.01,-163.55"/>
<polygon fill="#63b8ff" stroke="#63b8ff" points="99.74,-290.76 97.59,-301.13 105.74,-294.36 99.74,-290.76"/>
</a>
</g>
</g>
<!-- Node13 -->
<g id="Node000013" class="node">
<title>Node13</title>
<g id="a_Node000013"><a xlink:href="classcom_1_1teragrep_1_1cfe18_1_1requestfilter_1_1Subject.html" target="_top" xlink:title=" ">
<polygon fill="white" stroke="#666666" points="399.5,-115.5 223.5,-115.5 223.5,-85.5 399.5,-85.5 399.5,-115.5"/>
<text text-anchor="start" x="231.5" y="-103.5" font-family="Helvetica,sans-Serif" font-size="10.00">com.teragrep.cfe18.requestfilter.</text>
<text text-anchor="middle" x="311.5" y="-92.5" font-family="Helvetica,sans-Serif" font-size="10.00">Subject</text>
</a>
</g>
</g>
<!-- Node1&#45;&gt;Node13 -->
<g id="edge12_Node000001_Node000013" class="edge">
<title>Node1&#45;&gt;Node13</title>
<g id="a_edge12_Node000001_Node000013"><a xlink:title=" ">
<path fill="none" stroke="#63b8ff" d="M97.71,-291.95C113.65,-250.67 151.56,-167.65 212,-124.5 216.73,-121.13 221.87,-118.22 227.25,-115.72"/>
<polygon fill="#63b8ff" stroke="#63b8ff" points="94.36,-290.9 94.12,-301.49 100.91,-293.36 94.36,-290.9"/>
</a>
</g>
</g>
<!-- Node14 -->
<g id="Node000014" class="node">
<title>Node14</title>
<g id="a_Node000014"><a xlink:href="classcom_1_1teragrep_1_1cfe18_1_1requestfilter_1_1Timestamp.html" target="_top" xlink:title=" ">
<polygon fill="white" stroke="#666666" points="399.5,-67.5 223.5,-67.5 223.5,-37.5 399.5,-37.5 399.5,-67.5"/>
<text text-anchor="start" x="231.5" y="-55.5" font-family="Helvetica,sans-Serif" font-size="10.00">com.teragrep.cfe18.requestfilter.</text>
<text text-anchor="middle" x="311.5" y="-44.5" font-family="Helvetica,sans-Serif" font-size="10.00">Timestamp</text>
</a>
</g>
</g>
<!-- Node1&#45;&gt;Node14 -->
<g id="edge13_Node000001_Node000014" class="edge">
<title>Node1&#45;&gt;Node14</title>
<g id="a_edge13_Node000001_Node000014"><a xlink:title=" ">
<path fill="none" stroke="#63b8ff" d="M94.47,-291.53C106.58,-242.38 140.44,-132.98 212,-76.5 216.28,-73.12 220.97,-70.21 225.91,-67.7"/>
<polygon fill="#63b8ff" stroke="#63b8ff" points="91.05,-290.79 92.15,-301.33 97.86,-292.41 91.05,-290.79"/>
</a>
</g>
</g>
<!-- Node15 -->
<g id="Node000015" class="node">
<title>Node15</title>
<g id="a_Node000015"><a xlink:href="classcom_1_1teragrep_1_1cfe18_1_1requestfilter_1_1Type.html" target="_top" xlink:title=" ">
<polygon fill="white" stroke="#666666" points="411,-19 212,-19 212,0 411,0 411,-19"/>
<text text-anchor="middle" x="311.5" y="-7" font-family="Helvetica,sans-Serif" font-size="10.00">com.teragrep.cfe18.requestfilter.Type</text>
</a>
</g>
</g>
<!-- Node1&#45;&gt;Node15 -->
<g id="edge14_Node000001_Node000015" class="edge">
<title>Node1&#45;&gt;Node15</title>
<g id="a_edge14_Node000001_Node000015"><a xlink:title=" ">
<path fill="none" stroke="#63b8ff" d="M91.91,-291.12C99.86,-234.37 127.3,-96.83 212,-28.5 216.61,-24.78 221.73,-21.72 227.15,-19.2"/>
<polygon fill="#63b8ff" stroke="#63b8ff" points="88.4,-290.98 90.57,-301.35 95.34,-291.89 88.4,-290.98"/>
</a>
</g>
</g>
</g>
</svg>
