<?xml version="1.0" encoding="UTF-8" standalone="no"?>
<!DOCTYPE svg PUBLIC "-//W3C//DTD SVG 1.1//EN"
 "http://www.w3.org/Graphics/SVG/1.1/DTD/svg11.dtd">
<!-- Generated by graphviz version 2.43.0 (0)
 -->
<!-- Title: com.teragrep.cfe18.procedureTests.ProcedureProcessingTypeTest Pages: 1 -->
<svg width="196pt" height="159pt"
 viewBox="0.00 0.00 196.00 159.00" xmlns="http://www.w3.org/2000/svg" xmlns:xlink="http://www.w3.org/1999/xlink">
<g id="graph0" class="graph" transform="scale(1 1) rotate(0) translate(4 155)">
<title>com.teragrep.cfe18.procedureTests.ProcedureProcessingTypeTest</title>
<!-- Node1 -->
<g id="Node000001" class="node">
<title>Node1</title>
<g id="a_Node000001"><a xlink:title=" ">
<polygon fill="#999999" stroke="#666666" points="188,-30 0,-30 0,0 188,0 188,-30"/>
<text text-anchor="start" x="8" y="-18" font-family="Helvetica,sans-Serif" font-size="10.00">com.teragrep.cfe18.procedure</text>
<text text-anchor="middle" x="94" y="-7" font-family="Helvetica,sans-Serif" font-size="10.00">Tests.ProcedureProcessingTypeTest</text>
</a>
</g>
</g>
<!-- Node2 -->
<g id="Node000002" class="node">
<title>Node2</title>
<g id="a_Node000002"><a xlink:href="classcom_1_1teragrep_1_1cfe18_1_1procedureTests_1_1DBUnitbase.html" target="_top" xlink:title=" ">
<polygon fill="white" stroke="#666666" points="176,-96 12,-96 12,-66 176,-66 176,-96"/>
<text text-anchor="start" x="20" y="-84" font-family="Helvetica,sans-Serif" font-size="10.00">com.teragrep.cfe18.procedure</text>
<text text-anchor="middle" x="94" y="-73" font-family="Helvetica,sans-Serif" font-size="10.00">Tests.DBUnitbase</text>
</a>
</g>
</g>
<!-- Node2&#45;&gt;Node1 -->
<g id="edge1_Node000001_Node000002" class="edge">
<title>Node2&#45;&gt;Node1</title>
<g id="a_edge1_Node000001_Node000002"><a xlink:title=" ">
<path fill="none" stroke="#63b8ff" d="M94,-55.54C94,-46.96 94,-37.61 94,-30.16"/>
<polygon fill="#63b8ff" stroke="#63b8ff" points="90.5,-55.8 94,-65.8 97.5,-55.8 90.5,-55.8"/>
</a>
</g>
</g>
<!-- Node3 -->
<g id="Node000003" class="node">
<title>Node3</title>
<g id="a_Node000003"><a xlink:title=" ">
<polygon fill="white" stroke="#666666" points="131,-151 57,-151 57,-132 131,-132 131,-151"/>
<text text-anchor="middle" x="94" y="-139" font-family="Helvetica,sans-Serif" font-size="10.00">DBTestCase</text>
</a>
</g>
</g>
<!-- Node3&#45;&gt;Node2 -->
<g id="edge2_Node000002_Node000003" class="edge">
<title>Node3&#45;&gt;Node2</title>
<g id="a_edge2_Node000002_Node000003"><a xlink:title=" ">
<path fill="none" stroke="#63b8ff" d="M94,-121.65C94,-113.36 94,-103.78 94,-96.11"/>
<polygon fill="#63b8ff" stroke="#63b8ff" points="90.5,-121.87 94,-131.87 97.5,-121.87 90.5,-121.87"/>
</a>
</g>
</g>
</g>
</svg>
