<?xml version="1.0" encoding="UTF-8" standalone="no"?>
<!DOCTYPE svg PUBLIC "-//W3C//DTD SVG 1.1//EN"
 "http://www.w3.org/Graphics/SVG/1.1/DTD/svg11.dtd">
<!-- Generated by graphviz version 2.43.0 (0)
 -->
<!-- Title: com.teragrep.cfe18.OAuth2ResourceServer Pages: 1 -->
<svg width="189pt" height="171pt"
 viewBox="0.00 0.00 188.50 171.00" xmlns="http://www.w3.org/2000/svg" xmlns:xlink="http://www.w3.org/1999/xlink">
<g id="graph0" class="graph" transform="scale(1 1) rotate(0) translate(4 167)">
<title>com.teragrep.cfe18.OAuth2ResourceServer</title>
<!-- Node1 -->
<g id="Node000001" class="node">
<title>Node1</title>
<g id="a_Node000001"><a xlink:title=" ">
<polygon fill="#999999" stroke="#666666" points="153,-30 2,-30 2,0 153,0 153,-30"/>
<text text-anchor="start" x="10" y="-18" font-family="Helvetica,sans-Serif" font-size="10.00">com.teragrep.cfe18.OAuth2</text>
<text text-anchor="middle" x="77.5" y="-7" font-family="Helvetica,sans-Serif" font-size="10.00">ResourceServer</text>
</a>
</g>
</g>
<!-- Node2 -->
<g id="Node000002" class="node">
<title>Node2</title>
<g id="a_Node000002"><a xlink:href="classcom_1_1teragrep_1_1cfe18_1_1RequestLoggingFilter.html" target="_top" xlink:title=" ">
<polygon fill="white" stroke="#666666" points="155,-107 0,-107 0,-77 155,-77 155,-107"/>
<text text-anchor="start" x="8" y="-95" font-family="Helvetica,sans-Serif" font-size="10.00">com.teragrep.cfe18.Request</text>
<text text-anchor="middle" x="77.5" y="-84" font-family="Helvetica,sans-Serif" font-size="10.00">LoggingFilter</text>
</a>
</g>
</g>
<!-- Node2&#45;&gt;Node1 -->
<g id="edge1_Node000001_Node000002" class="edge">
<title>Node2&#45;&gt;Node1</title>
<g id="a_edge1_Node000001_Node000002"><a xlink:title=" ">
<path fill="none" stroke="#9a32cd" stroke-dasharray="5,2" d="M77.5,-66.54C77.5,-54.45 77.5,-40.29 77.5,-30.04"/>
<polygon fill="#9a32cd" stroke="#9a32cd" points="74,-66.89 77.5,-76.89 81,-66.89 74,-66.89"/>
</a>
</g>
<text text-anchor="middle" x="129" y="-51" font-family="Helvetica,sans-Serif" font-size="10.00" fill="grey"> requestLoggingFilter</text>
</g>
<!-- Node3 -->
<g id="Node000003" class="node">
<title>Node3</title>
<g id="a_Node000003"><a xlink:title=" ">
<polygon fill="white" stroke="#666666" points="138.5,-163 16.5,-163 16.5,-144 138.5,-144 138.5,-163"/>
<text text-anchor="middle" x="77.5" y="-151" font-family="Helvetica,sans-Serif" font-size="10.00">OncePerRequestFilter</text>
</a>
</g>
</g>
<!-- Node3&#45;&gt;Node2 -->
<g id="edge2_Node000002_Node000003" class="edge">
<title>Node3&#45;&gt;Node2</title>
<g id="a_edge2_Node000002_Node000003"><a xlink:title=" ">
<path fill="none" stroke="#63b8ff" d="M77.5,-133.73C77.5,-125.09 77.5,-115 77.5,-107.02"/>
<polygon fill="#63b8ff" stroke="#63b8ff" points="74,-133.98 77.5,-143.98 81,-133.98 74,-133.98"/>
</a>
</g>
</g>
</g>
</svg>
