<?xml version="1.0" encoding="UTF-8" standalone="no"?>
<!DOCTYPE svg PUBLIC "-//W3C//DTD SVG 1.1//EN"
 "http://www.w3.org/Graphics/SVG/1.1/DTD/svg11.dtd">
<!-- Generated by graphviz version 2.43.0 (0)
 -->
<!-- Title: com.teragrep.cfe18.procedureTests.TriggerHostGroupCaptureGroupsFileTest Pages: 1 -->
<svg width="210pt" height="170pt"
 viewBox="0.00 0.00 210.00 170.00" xmlns="http://www.w3.org/2000/svg" xmlns:xlink="http://www.w3.org/1999/xlink">
<g id="graph0" class="graph" transform="scale(1 1) rotate(0) translate(4 166)">
<title>com.teragrep.cfe18.procedureTests.TriggerHostGroupCaptureGroupsFileTest</title>
<!-- Node1 -->
<g id="Node000001" class="node">
<title>Node1</title>
<g id="a_Node000001"><a xlink:title=" ">
<polygon fill="#999999" stroke="#666666" points="202,-41 0,-41 0,0 202,0 202,-41"/>
<text text-anchor="start" x="8" y="-29" font-family="Helvetica,sans-Serif" font-size="10.00">com.teragrep.cfe18.procedure</text>
<text text-anchor="start" x="8" y="-18" font-family="Helvetica,sans-Serif" font-size="10.00">Tests.TriggerHostGroupCaptureGroups</text>
<text text-anchor="middle" x="101" y="-7" font-family="Helvetica,sans-Serif" font-size="10.00">FileTest</text>
</a>
</g>
</g>
<!-- Node2 -->
<g id="Node000002" class="node">
<title>Node2</title>
<g id="a_Node000002"><a xlink:href="classcom_1_1teragrep_1_1cfe18_1_1procedureTests_1_1DBUnitbase.html" target="_top" xlink:title=" ">
<polygon fill="white" stroke="#666666" points="183,-107 19,-107 19,-77 183,-77 183,-107"/>
<text text-anchor="start" x="27" y="-95" font-family="Helvetica,sans-Serif" font-size="10.00">com.teragrep.cfe18.procedure</text>
<text text-anchor="middle" x="101" y="-84" font-family="Helvetica,sans-Serif" font-size="10.00">Tests.DBUnitbase</text>
</a>
</g>
</g>
<!-- Node2&#45;&gt;Node1 -->
<g id="edge1_Node000001_Node000002" class="edge">
<title>Node2&#45;&gt;Node1</title>
<g id="a_edge1_Node000001_Node000002"><a xlink:title=" ">
<path fill="none" stroke="#63b8ff" d="M101,-66.91C101,-58.47 101,-49.1 101,-41.07"/>
<polygon fill="#63b8ff" stroke="#63b8ff" points="97.5,-66.94 101,-76.94 104.5,-66.94 97.5,-66.94"/>
</a>
</g>
</g>
<!-- Node3 -->
<g id="Node000003" class="node">
<title>Node3</title>
<g id="a_Node000003"><a xlink:title=" ">
<polygon fill="white" stroke="#666666" points="138,-162 64,-162 64,-143 138,-143 138,-162"/>
<text text-anchor="middle" x="101" y="-150" font-family="Helvetica,sans-Serif" font-size="10.00">DBTestCase</text>
</a>
</g>
</g>
<!-- Node3&#45;&gt;Node2 -->
<g id="edge2_Node000002_Node000003" class="edge">
<title>Node3&#45;&gt;Node2</title>
<g id="a_edge2_Node000002_Node000003"><a xlink:title=" ">
<path fill="none" stroke="#63b8ff" d="M101,-132.65C101,-124.36 101,-114.78 101,-107.11"/>
<polygon fill="#63b8ff" stroke="#63b8ff" points="97.5,-132.87 101,-142.87 104.5,-132.87 97.5,-132.87"/>
</a>
</g>
</g>
</g>
</svg>
