<?xml version="1.0" encoding="UTF-8" standalone="no"?>
<!DOCTYPE svg PUBLIC "-//W3C//DTD SVG 1.1//EN"
 "http://www.w3.org/Graphics/SVG/1.1/DTD/svg11.dtd">
<!-- Generated by graphviz version 2.43.0 (0)
 -->
<!-- Title: Graphical Class Hierarchy Pages: 1 -->
<svg width="515pt" height="578pt"
 viewBox="0.00 0.00 515.00 578.00" xmlns="http://www.w3.org/2000/svg" xmlns:xlink="http://www.w3.org/1999/xlink">
<g id="graph0" class="graph" transform="scale(1 1) rotate(0) translate(4 574)">
<title>Graphical Class Hierarchy</title>
<!-- Node0 -->
<g id="Node000000" class="node">
<title>Node0</title>
<g id="a_Node000000"><a xlink:title=" ">
<polygon fill="#e0e0e0" stroke="#999999" points="74,-300.5 0,-300.5 0,-281.5 74,-281.5 74,-300.5"/>
<text text-anchor="middle" x="37" y="-288.5" font-family="Helvetica,sans-Serif" font-size="10.00">DBTestCase</text>
</a>
</g>
</g>
<!-- Node1 -->
<g id="Node000001" class="node">
<title>Node1</title>
<g id="a_Node000001"><a xlink:href="classcom_1_1teragrep_1_1cfe18_1_1procedureTests_1_1DBUnitbase.html" target="_top" xlink:title=" ">
<polygon fill="white" stroke="#666666" points="274,-306 110,-306 110,-276 274,-276 274,-306"/>
<text text-anchor="start" x="118" y="-294" font-family="Helvetica,sans-Serif" font-size="10.00">com.teragrep.cfe18.procedure</text>
<text text-anchor="middle" x="192" y="-283" font-family="Helvetica,sans-Serif" font-size="10.00">Tests.DBUnitbase</text>
</a>
</g>
</g>
<!-- Node0&#45;&gt;Node1 -->
<g id="edge2_Node000000_Node000001" class="edge">
<title>Node0&#45;&gt;Node1</title>
<g id="a_edge2_Node000000_Node000001"><a xlink:title=" ">
<path fill="none" stroke="#63b8ff" d="M84.49,-291C92.53,-291 101.1,-291 109.75,-291"/>
<polygon fill="#63b8ff" stroke="#63b8ff" points="84.26,-287.5 74.26,-291 84.26,-294.5 84.26,-287.5"/>
</a>
</g>
</g>
<!-- Node2 -->
<g id="Node000002" class="node">
<title>Node2</title>
<g id="a_Node000002"><a xlink:href="classcom_1_1teragrep_1_1cfe18_1_1procedureTests_1_1ProcedureCaptureGroupTest.html" target="_top" xlink:title=" ">
<polygon fill="white" stroke="#666666" points="498.5,-570 318.5,-570 318.5,-540 498.5,-540 498.5,-570"/>
<text text-anchor="start" x="326.5" y="-558" font-family="Helvetica,sans-Serif" font-size="10.00">com.teragrep.cfe18.procedure</text>
<text text-anchor="middle" x="408.5" y="-547" font-family="Helvetica,sans-Serif" font-size="10.00">Tests.ProcedureCaptureGroupTest</text>
</a>
</g>
</g>
<!-- Node1&#45;&gt;Node2 -->
<g id="edge3_Node000001_Node000002" class="edge">
<title>Node1&#45;&gt;Node2</title>
<g id="a_edge3_Node000001_Node000002"><a xlink:title=" ">
<path fill="none" stroke="#63b8ff" d="M197.83,-315.93C208.69,-365.01 239.78,-474.3 310,-531 314.2,-534.39 318.82,-537.32 323.69,-539.84"/>
<polygon fill="#63b8ff" stroke="#63b8ff" points="201.26,-315.2 195.76,-306.14 194.41,-316.65 201.26,-315.2"/>
</a>
</g>
</g>
<!-- Node3 -->
<g id="Node000003" class="node">
<title>Node3</title>
<g id="a_Node000003"><a xlink:href="classcom_1_1teragrep_1_1cfe18_1_1procedureTests_1_1ProcedureCaptureMetaFileTest.html" target="_top" xlink:title=" ">
<polygon fill="white" stroke="#666666" points="505,-522 312,-522 312,-492 505,-492 505,-522"/>
<text text-anchor="start" x="320" y="-510" font-family="Helvetica,sans-Serif" font-size="10.00">com.teragrep.cfe18.procedure</text>
<text text-anchor="middle" x="408.5" y="-499" font-family="Helvetica,sans-Serif" font-size="10.00">Tests.ProcedureCaptureMetaFileTest</text>
</a>
</g>
</g>
<!-- Node1&#45;&gt;Node3 -->
<g id="edge4_Node000001_Node000003" class="edge">
<title>Node1&#45;&gt;Node3</title>
<g id="a_edge4_Node000001_Node000003"><a xlink:title=" ">
<path fill="none" stroke="#63b8ff" d="M201.05,-315.83C215.78,-357.17 251.08,-439.82 310,-483 314.64,-486.4 319.7,-489.32 325.01,-491.83"/>
<polygon fill="#63b8ff" stroke="#63b8ff" points="204.32,-314.57 197.75,-306.26 197.7,-316.85 204.32,-314.57"/>
</a>
</g>
</g>
<!-- Node4 -->
<g id="Node000004" class="node">
<title>Node4</title>
<g id="a_Node000004"><a xlink:href="classcom_1_1teragrep_1_1cfe18_1_1procedureTests_1_1ProcedureGxGTest.html" target="_top" xlink:title=" ">
<polygon fill="white" stroke="#666666" points="490.5,-474 326.5,-474 326.5,-444 490.5,-444 490.5,-474"/>
<text text-anchor="start" x="334.5" y="-462" font-family="Helvetica,sans-Serif" font-size="10.00">com.teragrep.cfe18.procedure</text>
<text text-anchor="middle" x="408.5" y="-451" font-family="Helvetica,sans-Serif" font-size="10.00">Tests.ProcedureGxGTest</text>
</a>
</g>
</g>
<!-- Node1&#45;&gt;Node4 -->
<g id="edge5_Node000001_Node000004" class="edge">
<title>Node1&#45;&gt;Node4</title>
<g id="a_edge5_Node000001_Node000004"><a xlink:title=" ">
<path fill="none" stroke="#63b8ff" d="M205.93,-315.19C224.53,-347.6 261.96,-404.55 310,-435 315.45,-438.45 321.36,-441.41 327.48,-443.94"/>
<polygon fill="#63b8ff" stroke="#63b8ff" points="208.92,-313.37 200.98,-306.36 202.81,-316.8 208.92,-313.37"/>
</a>
</g>
</g>
<!-- Node5 -->
<g id="Node000005" class="node">
<title>Node5</title>
<g id="a_Node000005"><a xlink:href="classcom_1_1teragrep_1_1cfe18_1_1procedureTests_1_1ProcedureHostAddCfeFileTest.html" target="_top" xlink:title=" ">
<polygon fill="white" stroke="#666666" points="502.5,-426 314.5,-426 314.5,-396 502.5,-396 502.5,-426"/>
<text text-anchor="start" x="322.5" y="-414" font-family="Helvetica,sans-Serif" font-size="10.00">com.teragrep.cfe18.procedure</text>
<text text-anchor="middle" x="408.5" y="-403" font-family="Helvetica,sans-Serif" font-size="10.00">Tests.ProcedureHostAddCfeFileTest</text>
</a>
</g>
</g>
<!-- Node1&#45;&gt;Node5 -->
<g id="edge6_Node000001_Node000005" class="edge">
<title>Node1&#45;&gt;Node5</title>
<g id="a_edge6_Node000001_Node000005"><a xlink:title=" ">
<path fill="none" stroke="#63b8ff" d="M214.11,-313.38C236.05,-335.33 272.38,-368.16 310,-387 316.86,-390.43 324.24,-393.4 331.76,-395.95"/>
<polygon fill="#63b8ff" stroke="#63b8ff" points="216.48,-310.8 206.97,-306.12 211.48,-315.7 216.48,-310.8"/>
</a>
</g>
</g>
<!-- Node6 -->
<g id="Node000006" class="node">
<title>Node6</title>
<g id="a_Node000006"><a xlink:href="classcom_1_1teragrep_1_1cfe18_1_1procedureTests_1_1ProcedureHostGroupFileTest.html" target="_top" xlink:title=" ">
<polygon fill="white" stroke="#666666" points="499.5,-378 317.5,-378 317.5,-348 499.5,-348 499.5,-378"/>
<text text-anchor="start" x="325.5" y="-366" font-family="Helvetica,sans-Serif" font-size="10.00">com.teragrep.cfe18.procedure</text>
<text text-anchor="middle" x="408.5" y="-355" font-family="Helvetica,sans-Serif" font-size="10.00">Tests.ProcedureHostGroupFileTest</text>
</a>
</g>
</g>
<!-- Node1&#45;&gt;Node6 -->
<g id="edge7_Node000001_Node000006" class="edge">
<title>Node1&#45;&gt;Node6</title>
<g id="a_edge7_Node000001_Node000006"><a xlink:title=" ">
<path fill="none" stroke="#63b8ff" d="M235.42,-310.18C257.39,-319.65 284.82,-330.78 310,-339 319.86,-342.22 330.4,-345.23 340.78,-347.97"/>
<polygon fill="#63b8ff" stroke="#63b8ff" points="236.61,-306.88 226.05,-306.09 233.82,-313.3 236.61,-306.88"/>
</a>
</g>
</g>
<!-- Node7 -->
<g id="Node000007" class="node">
<title>Node7</title>
<g id="a_Node000007"><a xlink:href="classcom_1_1teragrep_1_1cfe18_1_1procedureTests_1_1ProcedureHostMetaFileTest.html" target="_top" xlink:title=" ">
<polygon fill="white" stroke="#666666" points="497,-330 320,-330 320,-300 497,-300 497,-330"/>
<text text-anchor="start" x="328" y="-318" font-family="Helvetica,sans-Serif" font-size="10.00">com.teragrep.cfe18.procedure</text>
<text text-anchor="middle" x="408.5" y="-307" font-family="Helvetica,sans-Serif" font-size="10.00">Tests.ProcedureHostMetaFileTest</text>
</a>
</g>
</g>
<!-- Node1&#45;&gt;Node7 -->
<g id="edge8_Node000001_Node000007" class="edge">
<title>Node1&#45;&gt;Node7</title>
<g id="a_edge8_Node000001_Node000007"><a xlink:title=" ">
<path fill="none" stroke="#63b8ff" d="M284.35,-301.22C296.11,-302.54 308.14,-303.88 319.84,-305.19"/>
<polygon fill="#63b8ff" stroke="#63b8ff" points="284.42,-297.71 274.09,-300.07 283.64,-304.66 284.42,-297.71"/>
</a>
</g>
</g>
<!-- Node8 -->
<g id="Node000008" class="node">
<title>Node8</title>
<g id="a_Node000008"><a xlink:href="classcom_1_1teragrep_1_1cfe18_1_1procedureTests_1_1ProcedureProcessingTypeTest.html" target="_top" xlink:title=" ">
<polygon fill="white" stroke="#666666" points="502.5,-282 314.5,-282 314.5,-252 502.5,-252 502.5,-282"/>
<text text-anchor="start" x="322.5" y="-270" font-family="Helvetica,sans-Serif" font-size="10.00">com.teragrep.cfe18.procedure</text>
<text text-anchor="middle" x="408.5" y="-259" font-family="Helvetica,sans-Serif" font-size="10.00">Tests.ProcedureProcessingTypeTest</text>
</a>
</g>
</g>
<!-- Node1&#45;&gt;Node8 -->
<g id="edge9_Node000001_Node000008" class="edge">
<title>Node1&#45;&gt;Node8</title>
<g id="a_edge9_Node000001_Node000008"><a xlink:title=" ">
<path fill="none" stroke="#63b8ff" d="M284.06,-280.81C294.11,-279.69 304.35,-278.54 314.42,-277.41"/>
<polygon fill="#63b8ff" stroke="#63b8ff" points="283.64,-277.34 274.09,-281.93 284.42,-284.29 283.64,-277.34"/>
</a>
</g>
</g>
<!-- Node9 -->
<g id="Node000009" class="node">
<title>Node9</title>
<g id="a_Node000009"><a xlink:href="classcom_1_1teragrep_1_1cfe18_1_1procedureTests_1_1ProcedureSinkTest.html" target="_top" xlink:title=" ">
<polygon fill="white" stroke="#666666" points="490.5,-234 326.5,-234 326.5,-204 490.5,-204 490.5,-234"/>
<text text-anchor="start" x="334.5" y="-222" font-family="Helvetica,sans-Serif" font-size="10.00">com.teragrep.cfe18.procedure</text>
<text text-anchor="middle" x="408.5" y="-211" font-family="Helvetica,sans-Serif" font-size="10.00">Tests.ProcedureSinkTest</text>
</a>
</g>
</g>
<!-- Node1&#45;&gt;Node9 -->
<g id="edge10_Node000001_Node000009" class="edge">
<title>Node1&#45;&gt;Node9</title>
<g id="a_edge10_Node000001_Node000009"><a xlink:title=" ">
<path fill="none" stroke="#63b8ff" d="M235.42,-271.82C257.39,-262.35 284.82,-251.22 310,-243 319.86,-239.78 330.4,-236.77 340.78,-234.03"/>
<polygon fill="#63b8ff" stroke="#63b8ff" points="233.82,-268.7 226.05,-275.91 236.61,-275.12 233.82,-268.7"/>
</a>
</g>
</g>
<!-- Node10 -->
<g id="Node000010" class="node">
<title>Node10</title>
<g id="a_Node000010"><a xlink:href="classcom_1_1teragrep_1_1cfe18_1_1procedureTests_1_1ProcedureStorageTest.html" target="_top" xlink:title=" ">
<polygon fill="white" stroke="#666666" points="490.5,-186 326.5,-186 326.5,-156 490.5,-156 490.5,-186"/>
<text text-anchor="start" x="334.5" y="-174" font-family="Helvetica,sans-Serif" font-size="10.00">com.teragrep.cfe18.procedure</text>
<text text-anchor="middle" x="408.5" y="-163" font-family="Helvetica,sans-Serif" font-size="10.00">Tests.ProcedureStorageTest</text>
</a>
</g>
</g>
<!-- Node1&#45;&gt;Node10 -->
<g id="edge11_Node000001_Node000010" class="edge">
<title>Node1&#45;&gt;Node10</title>
<g id="a_edge11_Node000001_Node000010"><a xlink:title=" ">
<path fill="none" stroke="#63b8ff" d="M214.11,-268.62C236.05,-246.67 272.38,-213.84 310,-195 316.86,-191.57 324.24,-188.6 331.76,-186.05"/>
<polygon fill="#63b8ff" stroke="#63b8ff" points="211.48,-266.3 206.97,-275.88 216.48,-271.2 211.48,-266.3"/>
</a>
</g>
</g>
<!-- Node11 -->
<g id="Node000011" class="node">
<title>Node11</title>
<g id="a_Node000011"><a xlink:href="classcom_1_1teragrep_1_1cfe18_1_1procedureTests_1_1TriggerHostFileTest.html" target="_top" xlink:title=" ">
<polygon fill="white" stroke="#666666" points="490.5,-138 326.5,-138 326.5,-108 490.5,-108 490.5,-138"/>
<text text-anchor="start" x="334.5" y="-126" font-family="Helvetica,sans-Serif" font-size="10.00">com.teragrep.cfe18.procedure</text>
<text text-anchor="middle" x="408.5" y="-115" font-family="Helvetica,sans-Serif" font-size="10.00">Tests.TriggerHostFileTest</text>
</a>
</g>
</g>
<!-- Node1&#45;&gt;Node11 -->
<g id="edge12_Node000001_Node000011" class="edge">
<title>Node1&#45;&gt;Node11</title>
<g id="a_edge12_Node000001_Node000011"><a xlink:title=" ">
<path fill="none" stroke="#63b8ff" d="M205.93,-266.81C224.53,-234.4 261.96,-177.45 310,-147 315.45,-143.55 321.36,-140.59 327.48,-138.06"/>
<polygon fill="#63b8ff" stroke="#63b8ff" points="202.81,-265.2 200.98,-275.64 208.92,-268.63 202.81,-265.2"/>
</a>
</g>
</g>
<!-- Node12 -->
<g id="Node000012" class="node">
<title>Node12</title>
<g id="a_Node000012"><a xlink:href="classcom_1_1teragrep_1_1cfe18_1_1procedureTests_1_1TriggerHostGroupCaptureGroupFileTest.html" target="_top" xlink:title=" ">
<polygon fill="white" stroke="#666666" points="507,-89.5 310,-89.5 310,-48.5 507,-48.5 507,-89.5"/>
<text text-anchor="start" x="318" y="-77.5" font-family="Helvetica,sans-Serif" font-size="10.00">com.teragrep.cfe18.procedure</text>
<text text-anchor="start" x="318" y="-66.5" font-family="Helvetica,sans-Serif" font-size="10.00">Tests.TriggerHostGroupCaptureGroup</text>
<text text-anchor="middle" x="408.5" y="-55.5" font-family="Helvetica,sans-Serif" font-size="10.00">FileTest</text>
</a>
</g>
</g>
<!-- Node1&#45;&gt;Node12 -->
<g id="edge13_Node000001_Node000012" class="edge">
<title>Node1&#45;&gt;Node12</title>
<g id="a_edge13_Node000001_Node000012"><a xlink:title=" ">
<path fill="none" stroke="#63b8ff" d="M201.33,-266.53C216.46,-225.73 252.34,-143.85 310,-99 314.47,-95.52 319.35,-92.44 324.46,-89.72"/>
<polygon fill="#63b8ff" stroke="#63b8ff" points="198.02,-265.38 197.92,-275.97 204.61,-267.75 198.02,-265.38"/>
</a>
</g>
</g>
<!-- Node13 -->
<g id="Node000013" class="node">
<title>Node13</title>
<g id="a_Node000013"><a xlink:href="classcom_1_1teragrep_1_1cfe18_1_1procedureTests_1_1TriggerTagTest.html" target="_top" xlink:title=" ">
<polygon fill="white" stroke="#666666" points="490.5,-30 326.5,-30 326.5,0 490.5,0 490.5,-30"/>
<text text-anchor="start" x="334.5" y="-18" font-family="Helvetica,sans-Serif" font-size="10.00">com.teragrep.cfe18.procedure</text>
<text text-anchor="middle" x="408.5" y="-7" font-family="Helvetica,sans-Serif" font-size="10.00">Tests.TriggerTagTest</text>
</a>
</g>
</g>
<!-- Node1&#45;&gt;Node13 -->
<g id="edge14_Node000001_Node000013" class="edge">
<title>Node1&#45;&gt;Node13</title>
<g id="a_edge14_Node000001_Node000013"><a xlink:title=" ">
<path fill="none" stroke="#63b8ff" d="M197.37,-265.74C207.54,-214.93 237.62,-100.08 310,-40 314.98,-35.87 320.55,-32.41 326.44,-29.52"/>
<polygon fill="#63b8ff" stroke="#63b8ff" points="193.88,-265.37 195.45,-275.85 200.76,-266.68 193.88,-265.37"/>
</a>
</g>
</g>
</g>
</svg>
